<svg fill="none" xmlns="http://www.w3.org/2000/svg" viewBox="0 0 191 38"><g clip-path="url(#a)" fill="#111"><path d="M91.3 29.5a6.9 6.9 0 0 1-1.3-4.3v-6.4a7 7 0 0 1 1.2-4.3c.9-1 2.2-1.5 4.2-1.5s3.2.5 4 1.3c.9 1 1.3 2.4 1.2 3.8v1.5h-3.9v-1.8c0-.5 0-1-.2-1.5l-.5-.5-.6-.1c-.6 0-1 .1-1.1.5-.2.6-.3 1.1-.3 1.7v8.3l.3 1.6c.2.4.6.5 1.2.5.5 0 .8-.1 1-.5.2-.6.2-1.1.2-1.6v-1.9h3.9v1.5c0 1.4-.3 2.8-1.2 3.9-.8 1-2.1 1.4-4 1.4-2-.1-3.3-.6-4.1-1.6ZM105.3 13.2h4.5l3.3 17.6h-3.7l-.6-3.7h-2.6l-.6 3.7h-3.7l3.4-17.6Zm3.2 11.6-1-6.9-.9 6.9h1.9ZM115.8 16.2h-2.6v-3h9.4v2.9h-2.7v14.7h-4V16.2ZM129.8 13.2h7v1.9h-4.6v5.7h3.6v1.8h-3.6v6.5h4.5v1.7h-7V13.2ZM138.8 13.2h1.7l5.1 11.6V13.2h2v17.6h-1.5l-5.2-12v12h-2.1V13.2ZM150 13.2h7v1.9h-4.5v5.7h3.6v1.8h-3.6v6.5h4.5v1.7h-7V13.2ZM159 13.2h3.7c1.4 0 2.9.3 4 1.1 1 .7 1.3 2 1.3 3.5 0 2.3-.7 3.7-2.2 4.1l2.5 8.8H166l-2.4-8.2h-2v8.2H159V13.2Zm3.5 7.6c.9 0 1.7-.2 2.3-.6.5-.4.8-1.2.8-2.4 0-.5-.1-1.1-.3-1.6a2 2 0 0 0-.9-1c-.5-.2-1.1-.3-1.7-.3h-1.1v5.8h1ZM171.2 29.5A7.6 7.6 0 0 1 170 25v-5.8c0-1.2 0-2.3.4-3.4a4 4 0 0 1 1.5-2c.8-.5 1.9-.7 2.9-.6 1.6 0 2.8.3 3.5 1.2a5.8 5.8 0 0 1 1.1 3.8v.6h-2.3v-.5c0-.6 0-1.3-.2-2 0-.3-.3-.7-.6-1l-1.5-.3c-.6 0-1.2.1-1.6.5a1.7 1.7 0 0 0-.6 1.2 14 14 0 0 0-.2 2v6.6c0 1 .1 2 .5 3 .3.5 1 .8 1.9.8.4 0 .7 0 1-.2.4-.2.7-.4.9-.7.4-1 .6-2 .5-3.1v-1.3H175v-1.7h4.6v8.7H178l-.2-2c-.2.6-.6 1.2-1.2 1.6-.6.4-1.3.6-2 .6a4 4 0 0 1-3.4-1.5ZM184.7 24.6l-3.9-11.3h2.4l2.7 8.5 2.7-8.5h2.4l-3.9 11.3v6.2h-2.3v-6.2h-.1Z"/></g><g clip-path="url(#b)"><path d="M6 20.7v-2.2c6.8-1 13.5-1.4 20.2-1.4V19c1.9-.8 4-1.4 6-1.8a16.7 16.7 0 0 0-32 3.3l5.9.3ZM27.2 24.2c-1.1 1.3-1.3 1.2-1.3 3.5v9.2a16.6 16.6 0 0 0 7.1-17c-2 1.2-4 2.7-5.8 4.3ZM6.4 25.7 1.2 24 0 23.6a16.6 16.6 0 0 0 8.7 14L6.4 25.7Z" fill="#FDC305"/><path d="M26.3 17.1c0-5.5-.4-11-1.4-16.5 0 0-.1-1.2-.9-.2-.6 1.3-1 2.6-1.2 4-4.3-.3-8.5-.2-12.8.3C9.2 2 7.8.7 7.2 1c-.7.3-.7 3.3-.7 3.3L6 18.4c6.7-.9 13.4-1.3 20.2-1.3Z" fill="#F06351"/><path d="m12.4 14 1.4 1c.4.2.6.3.6.5s-.2.3-.6.3c-.4 0-1 0-1-.2H14L12.4 14ZM19.9 14.1l-1.1 1.3c0 .1-.2.4.2.3l1.2-.3-.1-.1h-1l.8-1.2s.1-.1 0 0ZM16.8 20.2c.4-.2.8-.6 1-1 .3-.6 0-1-.4-1-.6-.1-1.2 0-1.7.3-.4.4-.4.8 0 1l1 .7Z" fill="#000"/><path d="M16.4 21.4a2 2 0 0 1-.5.7c-.3.2-.6.3-1 .3-.5 0-1 0-1.5-.4l-.5-.4a1 1 0 0 0-.4-.3s.8 4.1 2.6 4.8c1.8.6 2.1-.8 2.2-1.2 0-1.1-.2-2.2-.8-3.2l-.1-.3Z" fill="#F06351"/><path d="M14.7 22.6a3.4 3.4 0 0 1-2.4-1.5.1.1 0 0 1 0-.1.1.1 0 0 1 .3 0c.5.7 1.2 1.1 2 1.3a2 2 0 0 0 1.7-1l.2-.2v.2s.4.8 1 .8c.7 0 1.1-.4 1.7-1.3a.1.1 0 0 1 .2 0 .2.2 0 0 1 0 .2c-.6 1-1.3 1.4-1.9 1.4a1.5 1.5 0 0 1-1-.8 2.3 2.3 0 0 1-1.8 1Z" fill="#000"/><path d="M26.2 19a58.6 58.6 0 0 0-5 5.1 31.6 31.6 0 0 1-5.3 4.9c-.2-.5-1.6-1.5-1.6-1.5S11 25.4 9 23.7l-3.1-3-2-.1c2.8 4.2 7 7.3 12 8.8.8-.2 3.2-1.9 5-3.3 2.1-1.8 4.1-3.8 6-5.9.5-.6.8-1.3 1.1-2l-1.9.7Z" fill="#F06351"/></g><defs><clipPath id="a"><path fill="#fff" d="M90 13h101v18H90z"/></clipPath><clipPath id="b"><path fill="#fff" d="M0 0h33.3v37.6H0z"/></clipPath></defs></svg>